<?xml version="1.0" encoding="utf-8"?>
<svg version="1.1" xmlns:xlink="http://www.w3.org/1999/xlink" width="544px" height="381px" xmlns="http://www.w3.org/2000/svg">
  <g transform="matrix(1 0 0 1 0 -940 )">
    <path d="M 272 940  C 424.32 940  544 1023.82  544 1130.5  C 544 1237.18  424.32 1321  272 1321  C 119.68 1321  0 1237.18  0 1130.5  C 0 1023.82  119.68 940  272 940  Z " fill-rule="nonzero" fill="#c280ff" stroke="none" />
    <path d="M 272 940.5  C 424.04 940.5  543.5 1024.1  543.5 1130.5  C 543.5 1236.9  424.04 1320.5  272 1320.5  C 119.96 1320.5  0.5 1236.9  0.5 1130.5  C 0.5 1024.1  119.96 940.5  272 940.5  Z " stroke-width="1" stroke="#8400ff" fill="none" />
  </g>
</svg>