<?xml version="1.0" encoding="utf-8"?>
<svg version="1.1" xmlns:xlink="http://www.w3.org/1999/xlink" width="1380px" height="307px" xmlns="http://www.w3.org/2000/svg">
  <defs>
    <mask fill="white" id="clip11">
      <path d="M 0 307  L 0 0  L 1380 0  C 1380 0  1380 102.333333333333  1380 153.5  C 1380 204.666666666667  1380 307  1380 307  L 0 307  Z " fill-rule="evenodd" />
    </mask>
  </defs>
  <g>
    <path d="M 0 307  L 0 0  L 1380 0  C 1380 0  1380 102.333333333333  1380 153.5  C 1380 204.666666666667  1380 307  1380 307  L 0 307  Z " fill-rule="nonzero" fill="#4b7902" stroke="none" fill-opacity="0.454901960784314" />
    <path d="M 0 307  L 0 0  L 1380 0  C 1380 0  1380 102.333333333333  1380 153.5  C 1380 204.666666666667  1380 307  1380 307  L 0 307  Z " stroke-width="2" stroke="#797979" fill="none" mask="url(#clip11)" />
  </g>
</svg>